<?xml version="1.0" encoding="UTF-8"?>
<svg xmlns="http://www.w3.org/2000/svg" xmlns:xlink="http://www.w3.org/1999/xlink" width="1012.5pt" height="487.499991pt" viewBox="0 0 1012.5 487.499991" version="1.2">
<defs>
<filter id="alpha" filterUnits="objectBoundingBox" x="0%" y="0%" width="100%" height="100%">
  <feColorMatrix type="matrix" in="SourceGraphic" values="0 0 0 0 1 0 0 0 0 1 0 0 0 0 1 0 0 0 1 0"/>
</filter>
<mask id="mask0">
  <g filter="url(#alpha)">
<rect x="0" y="0" width="1012.5" height="487.499991" style="fill:rgb(0%,0%,0%);fill-opacity:0.098;stroke:none;"/>
  </g>
</mask>
<clipPath id="clip2">
  <path d="M 1.203125 19 L 275 19 L 275 419 L 1.203125 419 Z M 1.203125 19 "/>
</clipPath>
<clipPath id="clip3">
  <path d="M 507 19 L 781.230469 19 L 781.230469 419 L 507 419 Z M 507 19 "/>
</clipPath>
<clipPath id="clip1">
  <rect x="0" y="0" width="782" height="487"/>
</clipPath>
<g id="surface5" clip-path="url(#clip1)">
<path style=" stroke:none;fill-rule:nonzero;fill:rgb(23.529053%,59.999084%,86.268616%);fill-opacity:1;" d="M 247.390625 409.957031 C 243.078125 409.957031 238.828125 408.507812 235.4375 405.808594 L 17.199219 234.144531 C 12.507812 230.457031 9.820312 224.929688 9.820312 218.96875 C 9.820312 213.011719 12.507812 207.480469 17.1875 203.761719 L 235.4375 32.132812 C 238.828125 29.433594 243.078125 27.984375 247.390625 27.984375 C 253.351562 27.984375 258.914062 30.652344 262.570312 35.359375 C 265.761719 39.40625 267.210938 44.476562 266.585938 49.578125 C 265.992188 54.714844 263.390625 59.289062 259.34375 62.480469 L 60.441406 218.96875 L 259.34375 375.425781 C 263.390625 378.652344 265.992188 383.226562 266.585938 388.328125 C 267.210938 393.464844 265.761719 398.5 262.570312 402.582031 C 258.914062 407.257812 253.351562 409.957031 247.390625 409.957031 "/>
<g clip-path="url(#clip2)" clip-rule="nonzero">
<path style=" stroke:none;fill-rule:nonzero;fill:rgb(100%,100%,100%);fill-opacity:1;" d="M 247.390625 19.753906 C 241.234375 19.753906 235.207031 21.828125 230.367188 25.648438 L 12.109375 197.3125 C 5.40625 202.609375 1.589844 210.476562 1.589844 218.96875 C 1.589844 227.464844 5.433594 235.363281 12.109375 240.628906 L 230.367188 412.292969 C 235.175781 416.078125 241.234375 418.1875 247.390625 418.1875 C 255.917969 418.1875 263.820312 414.335938 269.054688 407.652344 C 273.632812 401.890625 275.640625 394.683594 274.785156 387.375 C 273.894531 380.066406 270.242188 373.515625 264.445312 368.972656 L 73.742188 218.96875 L 264.445312 68.964844 C 270.242188 64.390625 273.894531 57.875 274.785156 50.566406 C 275.640625 43.257812 273.632812 36.050781 269.054688 30.253906 C 263.820312 23.574219 255.886719 19.753906 247.390625 19.753906 Z M 247.390625 36.214844 C 250.683594 36.214844 253.941406 37.660156 256.117188 40.425781 C 259.933594 45.265625 259.078125 52.246094 254.273438 56.03125 L 47.105469 218.96875 L 254.273438 381.910156 C 259.078125 385.695312 259.933594 392.675781 256.117188 397.480469 C 253.941406 400.277344 250.683594 401.726562 247.390625 401.726562 C 244.988281 401.726562 242.582031 400.96875 240.542969 399.355469 L 22.28125 227.695312 C 19.617188 225.585938 18.050781 222.359375 18.050781 218.96875 C 18.050781 215.546875 19.617188 212.355469 22.28125 210.246094 L 240.542969 38.582031 C 242.550781 36.972656 244.988281 36.214844 247.390625 36.214844 "/>
</g>
<path style=" stroke:none;fill-rule:nonzero;fill:rgb(23.529053%,59.999084%,86.268616%);fill-opacity:1;" d="M 535.351562 409.957031 C 529.394531 409.957031 523.863281 407.257812 520.140625 402.582031 C 513.558594 394.222656 515.003906 382.042969 523.402344 375.425781 L 722.335938 218.96875 L 523.402344 62.480469 C 515.003906 55.898438 513.558594 43.71875 520.140625 35.359375 C 523.863281 30.652344 529.394531 27.984375 535.351562 27.984375 C 539.667969 27.984375 543.914062 29.433594 547.304688 32.132812 L 765.566406 203.761719 C 770.242188 207.480469 772.910156 213.011719 772.910156 218.96875 C 772.910156 224.929688 770.242188 230.457031 765.53125 234.144531 L 547.304688 405.808594 C 543.914062 408.507812 539.667969 409.957031 535.355469 409.957031 "/>
<g clip-path="url(#clip3)" clip-rule="nonzero">
<path style=" stroke:none;fill-rule:nonzero;fill:rgb(100%,100%,100%);fill-opacity:1;" d="M 535.351562 19.753906 C 526.859375 19.753906 518.957031 23.574219 513.6875 30.253906 C 504.273438 42.203125 506.347656 59.550781 518.296875 68.964844 L 709 218.96875 L 518.296875 368.972656 C 506.347656 378.355469 504.273438 395.734375 513.6875 407.652344 C 518.957031 414.335938 526.859375 418.1875 535.351562 418.1875 C 541.511719 418.1875 547.535156 416.078125 552.375 412.292969 L 770.636719 240.628906 C 777.320312 235.363281 781.140625 227.464844 781.140625 218.96875 C 781.140625 210.476562 777.320312 202.609375 770.667969 197.3125 L 552.410156 25.648438 C 547.570312 21.828125 541.511719 19.753906 535.355469 19.753906 Z M 535.351562 36.214844 C 537.757812 36.214844 540.195312 36.96875 542.203125 38.582031 L 760.460938 210.246094 C 763.128906 212.355469 764.675781 215.546875 764.675781 218.96875 C 764.675781 222.359375 763.128906 225.585938 760.460938 227.695312 L 542.203125 399.355469 C 540.195312 400.96875 537.757812 401.726562 535.351562 401.726562 C 532.0625 401.726562 528.800781 400.277344 526.628906 397.480469 C 522.84375 392.675781 523.664062 385.695312 528.472656 381.910156 L 735.636719 218.96875 L 528.472656 56.03125 C 523.664062 52.246094 522.84375 45.265625 526.628906 40.425781 C 528.800781 37.660156 532.09375 36.214844 535.351562 36.214844 "/>
</g>
<path style=" stroke:none;fill-rule:nonzero;fill:rgb(23.529053%,59.999084%,86.268616%);fill-opacity:1;" d="M 282.917969 513.546875 C 280.511719 513.546875 278.175781 513.085938 275.9375 512.230469 C 271.128906 510.355469 267.308594 506.734375 265.234375 502.027344 C 263.128906 497.285156 263.03125 492.050781 264.875 487.246094 L 478.03125 -63.261719 C 480.894531 -70.636719 488.140625 -75.605469 496.039062 -75.605469 C 498.445312 -75.605469 500.816406 -75.144531 503.054688 -74.289062 C 512.964844 -70.4375 517.9375 -59.214844 514.085938 -49.273438 L 300.960938 501.203125 C 298.09375 508.578125 290.820312 513.546875 282.917969 513.546875 "/>
<path style=" stroke:none;fill-rule:nonzero;fill:rgb(100%,100%,100%);fill-opacity:1;" d="M 496.039062 -83.835938 C 484.746094 -83.835938 474.410156 -76.726562 470.359375 -66.226562 L 257.203125 484.25 C 254.566406 491.128906 254.734375 498.601562 257.695312 505.351562 C 260.691406 512.066406 266.09375 517.265625 272.972656 519.898438 C 276.167969 521.152344 279.492188 521.777344 282.917969 521.777344 C 294.210938 521.777344 304.546875 514.699219 308.632812 504.164062 L 521.753906 -46.308594 C 527.253906 -60.496094 520.175781 -76.496094 505.984375 -81.960938 C 502.824219 -83.210938 499.464844 -83.835938 496.039062 -83.835938 Z M 496.039062 -67.378906 C 497.390625 -67.378906 498.742188 -67.113281 500.058594 -66.621094 C 505.785156 -64.414062 508.617188 -57.996094 506.414062 -52.269531 L 293.253906 498.207031 C 291.574219 502.617188 287.363281 505.316406 282.917969 505.316406 C 281.566406 505.316406 280.214844 505.085938 278.898438 504.5625 C 273.171875 502.355469 270.339844 495.902344 272.578125 490.207031 L 485.703125 -60.265625 C 487.414062 -64.679688 491.597656 -67.378906 496.039062 -67.378906 "/>
</g>
</defs>
<g id="surface1">
<use xlink:href="#surface5" transform="matrix(1,0,0,1,115,0)" mask="url(#mask0)"/>
</g>
</svg>
